<?xml version="1.0" encoding="utf-8"?>
<svg xmlns="http://www.w3.org/2000/svg" id="Layer_1" data-name="Layer 1" viewBox="0 0 48 48">
  <defs>
    <style>.cls-1{fill:none;stroke:#000;stroke-linecap:round;stroke-linejoin:round;}</style>
  </defs>
  <path class="cls-1" d="M1.53,36.42V4A2.22,2.22,0,0,1,3.74,1.73h27.2"/>
  <path class="cls-1" d="M46.47,8.71H1.53V4A2.22,2.22,0,0,1,3.74,1.73H44.26A2.22,2.22,0,0,1,46.47,4V44.24a3,3,0,0,1-2.95,2.95H16.45"/>
  <line class="cls-1" x1="10.2" y1="8.93" x2="10.2" y2="28.17"/>
  <polyline class="cls-1" points="17.43 26.15 42.05 26.15 42.05 14.51 15.7 14.51 15.7 20.86"/>
  <polyline class="cls-1" points="18.56 30.19 25.75 30.19 25.75 41.83 20.82 41.83"/>
  <rect class="cls-1" x="29.42" y="30.19" width="12.63" height="11.64"/>
  <path class="cls-1" d="M15.7,35.2l1.9-3a1.9,1.9,0,0,1,2.63-.58h0a1.9,1.9,0,0,1,.58,2.63L18.17,38.4"/>
  <path class="cls-1" d="M13.15,32.11l1.9-3a1.91,1.91,0,0,1,2.63-.59h0a1.91,1.91,0,0,1,.58,2.63l-2.64,4.16"/>
  <path class="cls-1" d="M7.37,34.1l8.42-13.24a1.91,1.91,0,0,1,2.63-.59h0A1.9,1.9,0,0,1,19,22.9l-5.71,9"/>
  <path class="cls-1" d="M7.21,34.35l2.62-4.12a1.91,1.91,0,0,0-.59-2.63h0a1.91,1.91,0,0,0-2.63.58l-4.47,7A4.92,4.92,0,0,0,3.66,42l1.55,1L11,46.7A5.64,5.64,0,0,0,18.82,45l4.94-7.76a1.91,1.91,0,0,0-.59-2.63L23,34.44a1.9,1.9,0,0,0-2.63.58L18.17,38.4"/>
  <line class="cls-1" x1="41.66" y1="30.19" x2="29.42" y2="41.83"/>
  <line class="cls-1" x1="29.42" y1="30.19" x2="42.05" y2="41.83"/>
  <line class="cls-1" x1="25.31" y1="18.55" x2="35.74" y2="18.55"/>
  <line class="cls-1" x1="25.31" y1="22.27" x2="30.52" y2="22.27"/>
</svg>